<svg xmlns="http://www.w3.org/2000/svg" version="1.1" xmlns:xlink="http://www.w3.org/1999/xlink" xmlns:svgjs="http://svgjs.dev/svgjs" viewBox="0 0 10.697720643066962 8.844869758442423"><g transform="matrix(1,0,0,1,0.8098733220217618,5.701333936420661)"><g><path d=" M 2.792238464355469 0.7919999999999998 L 2.865738464355469 0.7919999999999998 L 2.865738464355469 1.1849999999999998 Q 2.796738464355469 1.251 2.698488464355469 1.2854999999999999 Q 2.6002384643554692 1.3199999999999998 2.490738464355469 1.3199999999999998 Q 2.3347384643554694 1.3199999999999998 2.209488464355469 1.251 Q 2.0842384643554692 1.1819999999999997 2.012988464355469 1.0604999999999998 Q 1.9417384643554692 0.9389999999999998 1.9417384643554692 0.7874999999999998 Q 1.9417384643554692 0.6359999999999998 2.012988464355469 0.5144999999999997 Q 2.0842384643554692 0.3929999999999998 2.209488464355469 0.32399999999999973 Q 2.3347384643554694 0.25499999999999967 2.492238464355469 0.25499999999999967 Q 2.607738464355469 0.25499999999999967 2.704488464355469 0.29174999999999973 Q 2.8012384643554693 0.3284999999999998 2.8702384643554693 0.3989999999999998 L 2.822238464355469 0.44999999999999973 Q 2.7562384643554694 0.3839999999999998 2.674488464355469 0.3547499999999998 Q 2.5927384643554694 0.3254999999999998 2.493738464355469 0.3254999999999998 Q 2.358738464355469 0.3254999999999998 2.2499884643554693 0.38549999999999973 Q 2.141238464355469 0.4454999999999998 2.079738464355469 0.5512499999999998 Q 2.018238464355469 0.6569999999999998 2.018238464355469 0.7874999999999998 Q 2.018238464355469 0.9164999999999998 2.080488464355469 1.0222499999999997 Q 2.142738464355469 1.1279999999999997 2.2507384643554693 1.1887499999999998 Q 2.358738464355469 1.2494999999999998 2.493738464355469 1.2494999999999998 Q 2.673738464355469 1.2494999999999998 2.792238464355469 1.1534999999999997 L 2.792238464355469 0.7919999999999998 M 3.930753845214844 1.3124999999999998 L 3.6802538452148443 0.9614999999999998 Q 3.624753845214844 0.9689999999999998 3.578253845214844 0.9689999999999998 L 3.278253845214844 0.9689999999999998 L 3.278253845214844 1.3124999999999998 L 3.201753845214844 1.3124999999999998 L 3.201753845214844 0.26249999999999973 L 3.578253845214844 0.26249999999999973 Q 3.7762538452148444 0.26249999999999973 3.8887538452148442 0.35624999999999973 Q 4.001253845214844 0.44999999999999973 4.001253845214844 0.6164999999999997 Q 4.001253845214844 0.7409999999999998 3.9375038452148443 0.8257499999999998 Q 3.873753845214844 0.9104999999999998 3.755253845214844 0.9449999999999998 L 4.017753845214844 1.3124999999999998 L 3.930753845214844 1.3124999999999998 M 3.578253845214844 0.9014999999999997 Q 3.746253845214844 0.9014999999999997 3.834753845214844 0.8272499999999998 Q 3.923253845214844 0.7529999999999998 3.923253845214844 0.6164999999999997 Q 3.923253845214844 0.47999999999999976 3.834753845214844 0.4057499999999997 Q 3.746253845214844 0.3314999999999998 3.578253845214844 0.3314999999999998 L 3.278253845214844 0.3314999999999998 L 3.278253845214844 0.9014999999999997 L 3.578253845214844 0.9014999999999997 M 4.931209899902344 1.017 L 4.322209899902344 1.017 L 4.188709899902344 1.3124999999999998 L 4.106209899902344 1.3124999999999998 L 4.589209899902344 0.26249999999999973 L 4.665709899902344 0.26249999999999973 L 5.148709899902344 1.3124999999999998 L 5.066209899902344 1.3124999999999998 L 4.931209899902344 1.017 M 4.902709899902344 0.9524999999999998 L 4.626709899902345 0.3464999999999998 L 4.352209899902344 0.9524999999999998 L 4.902709899902344 0.9524999999999998 M 5.489970886230469 1.251 Q 5.366220886230469 1.1819999999999997 5.294970886230469 1.0604999999999998 Q 5.223720886230469 0.9389999999999998 5.223720886230469 0.7874999999999998 Q 5.223720886230469 0.6359999999999998 5.294970886230469 0.5144999999999997 Q 5.366220886230469 0.3929999999999998 5.489970886230469 0.32399999999999973 Q 5.613720886230469 0.25499999999999967 5.768220886230469 0.25499999999999967 Q 5.882220886230469 0.25499999999999967 5.978220886230469 0.29174999999999973 Q 6.074220886230469 0.3284999999999998 6.141720886230469 0.40049999999999975 L 6.093720886230469 0.44999999999999973 Q 5.967720886230469 0.3254999999999998 5.771220886230469 0.3254999999999998 Q 5.639220886230469 0.3254999999999998 5.531220886230469 0.38549999999999973 Q 5.423220886230469 0.4454999999999998 5.3617208862304695 0.5512499999999998 Q 5.300220886230469 0.6569999999999998 5.300220886230469 0.7874999999999998 Q 5.300220886230469 0.9179999999999997 5.3617208862304695 1.0237499999999997 Q 5.423220886230469 1.1294999999999997 5.531220886230469 1.1894999999999998 Q 5.639220886230469 1.2494999999999998 5.771220886230469 1.2494999999999998 Q 5.966220886230469 1.2494999999999998 6.093720886230469 1.1234999999999997 L 6.141720886230469 1.1729999999999998 Q 6.074220886230469 1.2449999999999997 5.977470886230469 1.2824999999999998 Q 5.880720886230469 1.3199999999999998 5.768220886230469 1.3199999999999998 Q 5.613720886230469 1.3199999999999998 5.489970886230469 1.251 M 7.122726013183594 1.2434999999999998 L 7.122726013183594 1.3124999999999998 L 6.398226013183594 1.3124999999999998 L 6.398226013183594 0.26249999999999973 L 7.100226013183594 0.26249999999999973 L 7.100226013183594 0.3314999999999998 L 6.474726013183594 0.3314999999999998 L 6.474726013183594 0.7454999999999997 L 7.034226013183594 0.7454999999999997 L 7.034226013183594 0.8129999999999997 L 6.474726013183594 0.8129999999999997 L 6.474726013183594 1.2434999999999998 L 7.122726013183594 1.2434999999999998 M 6.906726013183594 0.17699999999999982 L 6.750726013183594 0.046499999999999764 L 6.594726013183594 0.17699999999999982 L 6.519726013183594 0.17699999999999982 L 6.708726013183594 -2.220446049250313e-16 L 6.792726013183594 -2.220446049250313e-16 L 6.981726013183594 0.17699999999999982 L 6.906726013183594 0.17699999999999982" fill="#343432" fill-rule="nonzero"></path></g><g><path d=" M 0.172875 2.2991625000000004 Q 0.11025 2.2646625 0.074625 2.2035375000000004 Q 0.039 2.1424125000000003 0.039 2.0666625 Q 0.039 1.9909125000000003 0.074625 1.9297875000000002 Q 0.11025 1.8686625000000001 0.17325000000000002 1.8341625000000001 Q 0.23625000000000002 1.7996625000000002 0.31425000000000003 1.7996625000000002 Q 0.37275 1.7996625000000002 0.42225 1.8191625000000002 Q 0.47175 1.8386625000000003 0.50625 1.8761625000000002 L 0.47100000000000003 1.9114125000000002 Q 0.40950000000000003 1.8491625000000003 0.31575000000000003 1.8491625000000003 Q 0.2535 1.8491625000000003 0.2025 1.8776625000000002 Q 0.1515 1.9061625000000002 0.122625 1.9556625000000003 Q 0.09375 2.0051625000000004 0.09375 2.0666625 Q 0.09375 2.1281625 0.122625 2.1776625000000003 Q 0.1515 2.2271625000000004 0.2025 2.2556625 Q 0.2535 2.2841625000000003 0.31575000000000003 2.2841625000000003 Q 0.41025 2.2841625000000003 0.47100000000000003 2.2211625 L 0.50625 2.2564125 Q 0.47175 2.2939125000000002 0.421875 2.3137875 Q 0.372 2.3336625000000004 0.3135 2.3336625000000004 Q 0.23550000000000001 2.3336625000000004 0.172875 2.2991625000000004 M 0.702734619140625 2.2987875000000004 Q 0.6393596191406249 2.2639125000000004 0.603734619140625 2.2031625000000004 Q 0.568109619140625 2.1424125000000003 0.568109619140625 2.0666625 Q 0.568109619140625 1.9909125000000003 0.603734619140625 1.9301625000000002 Q 0.6393596191406249 1.8694125000000001 0.702734619140625 1.8345375000000002 Q 0.7661096191406249 1.7996625000000002 0.844109619140625 1.7996625000000002 Q 0.922109619140625 1.7996625000000002 0.984734619140625 1.8341625000000001 Q 1.047359619140625 1.8686625000000001 1.083359619140625 1.9297875000000002 Q 1.119359619140625 1.9909125000000003 1.119359619140625 2.0666625 Q 1.119359619140625 2.1424125000000003 1.083359619140625 2.2035375000000004 Q 1.047359619140625 2.2646625 0.984734619140625 2.2991625000000004 Q 0.922109619140625 2.3336625000000004 0.844109619140625 2.3336625000000004 Q 0.7661096191406249 2.3336625000000004 0.702734619140625 2.2987875000000004 M 0.9566096191406249 2.2560375 Q 1.006859619140625 2.2279125000000004 1.035359619140625 2.1780375000000003 Q 1.0638596191406249 2.1281625 1.0638596191406249 2.0666625 Q 1.0638596191406249 2.0051625000000004 1.035359619140625 1.9552875000000003 Q 1.006859619140625 1.9054125000000002 0.9566096191406249 1.8772875000000002 Q 0.9063596191406249 1.8491625000000003 0.844109619140625 1.8491625000000003 Q 0.781859619140625 1.8491625000000003 0.7312346191406249 1.8772875000000002 Q 0.6806096191406249 1.9054125000000002 0.6517346191406249 1.9552875000000003 Q 0.6228596191406249 2.0051625000000004 0.6228596191406249 2.0666625 Q 0.6228596191406249 2.1281625 0.6517346191406249 2.1780375000000003 Q 0.6806096191406249 2.2279125000000004 0.7312346191406249 2.2560375 Q 0.781859619140625 2.2841625000000003 0.844109619140625 2.2841625000000003 Q 0.9063596191406249 2.2841625000000003 0.9566096191406249 2.2560375 M 1.6837265625 1.8041625000000003 L 1.6837265625 2.3291625000000002 L 1.6379765625 2.3291625000000002 L 1.3004765625 1.9031625000000003 L 1.3004765625 2.3291625000000002 L 1.2449765625 2.3291625000000002 L 1.2449765625 1.8041625000000003 L 1.2907265625000002 1.8041625000000003 L 1.6289765625000001 2.2301625 L 1.6289765625000001 1.8041625000000003 L 1.6837265625 1.8041625000000003 M 1.9113427734375 1.8521625000000002 L 1.9113427734375 2.0584125 L 2.1828427734374998 2.0584125 L 2.1828427734374998 2.1064125000000002 L 1.9113427734375 2.1064125000000002 L 1.9113427734375 2.3291625000000002 L 1.8558427734374998 2.3291625000000002 L 1.8558427734374998 1.8041625000000003 L 2.2158427734375 1.8041625000000003 L 2.2158427734375 1.8521625000000002 L 1.9113427734375 1.8521625000000002 M 2.3317144775390624 1.8041625000000003 L 2.3872144775390622 1.8041625000000003 L 2.3872144775390622 2.3291625000000002 L 2.3317144775390624 2.3291625000000002 L 2.3317144775390624 1.8041625000000003 M 2.8885909423828124 2.1889125000000003 L 2.5960909423828125 2.1889125000000003 L 2.5330909423828123 2.3291625000000002 L 2.4753409423828123 2.3291625000000002 L 2.715340942382812 1.8041625000000003 L 2.7700909423828124 1.8041625000000003 L 3.010090942382812 2.3291625000000002 L 2.951590942382812 2.3291625000000002 L 2.8885909423828124 2.1889125000000003 M 2.868340942382812 2.1439125000000003 L 2.7423409423828122 1.8619125000000003 L 2.6163409423828123 2.1439125000000003 L 2.868340942382812 2.1439125000000003 M 3.5369509277343747 1.8041625000000003 L 3.5369509277343747 2.3291625000000002 L 3.4912009277343747 2.3291625000000002 L 3.153700927734375 1.9031625000000003 L 3.153700927734375 2.3291625000000002 L 3.098200927734375 2.3291625000000002 L 3.098200927734375 1.8041625000000003 L 3.143950927734375 1.8041625000000003 L 3.482200927734375 2.2301625 L 3.482200927734375 1.8041625000000003 L 3.5369509277343747 1.8041625000000003 M 3.7964421386718743 2.2991625000000004 Q 3.7338171386718746 2.2646625 3.6981921386718746 2.2035375000000004 Q 3.6625671386718746 2.1424125000000003 3.6625671386718746 2.0666625 Q 3.6625671386718746 1.9909125000000003 3.6981921386718746 1.9297875000000002 Q 3.7338171386718746 1.8686625000000001 3.7968171386718743 1.8341625000000001 Q 3.8598171386718745 1.7996625000000002 3.9378171386718743 1.7996625000000002 Q 3.9963171386718743 1.7996625000000002 4.045817138671874 1.8191625000000002 Q 4.0953171386718745 1.8386625000000003 4.129817138671874 1.8761625000000002 L 4.0945671386718745 1.9114125000000002 Q 4.033067138671875 1.8491625000000003 3.9393171386718744 1.8491625000000003 Q 3.8770671386718742 1.8491625000000003 3.8260671386718745 1.8776625000000002 Q 3.7750671386718744 1.9061625000000002 3.7461921386718746 1.9556625000000003 Q 3.7173171386718744 2.0051625000000004 3.7173171386718744 2.0666625 Q 3.7173171386718744 2.1281625 3.7461921386718746 2.1776625000000003 Q 3.7750671386718744 2.2271625000000004 3.8260671386718745 2.2556625 Q 3.8770671386718742 2.2841625000000003 3.9393171386718744 2.2841625000000003 Q 4.033817138671875 2.2841625000000003 4.0945671386718745 2.2211625 L 4.129817138671874 2.2564125 Q 4.0953171386718745 2.2939125000000002 4.045442138671874 2.3137875 Q 3.9955671386718743 2.3336625000000004 3.9370671386718743 2.3336625000000004 Q 3.8590671386718745 2.3336625000000004 3.7964421386718743 2.2991625000000004 M 4.620687744140625 2.2811625 L 4.620687744140625 2.3291625000000002 L 4.249437744140624 2.3291625000000002 L 4.249437744140624 1.8041625000000003 L 4.6094377441406245 1.8041625000000003 L 4.6094377441406245 1.8521625000000002 L 4.3049377441406245 1.8521625000000002 L 4.3049377441406245 2.0389125000000003 L 4.576437744140624 2.0389125000000003 L 4.576437744140624 2.0861625000000004 L 4.3049377441406245 2.0861625000000004 L 4.3049377441406245 2.2811625 L 4.620687744140625 2.2811625 M 5.3084604492187495 2.3291625000000002 L 5.188460449218749 2.1604125 Q 5.1682104492187495 2.1626625 5.14646044921875 2.1626625 L 5.0054604492187496 2.1626625 L 5.0054604492187496 2.3291625000000002 L 4.949960449218749 2.3291625000000002 L 4.949960449218749 1.8041625000000003 L 5.14646044921875 1.8041625000000003 Q 5.24696044921875 1.8041625000000003 5.303960449218749 1.8521625000000002 Q 5.36096044921875 1.9001625000000002 5.36096044921875 1.9841625000000003 Q 5.36096044921875 2.0456625 5.329835449218749 2.0880375000000004 Q 5.298710449218749 2.1304125000000003 5.24096044921875 2.1491625 L 5.36921044921875 2.3291625000000002 L 5.3084604492187495 2.3291625000000002 M 5.26421044921875 2.0809125 Q 5.305460449218749 2.0464125 5.305460449218749 1.9841625000000003 Q 5.305460449218749 1.9204125000000003 5.26421044921875 1.8862875000000003 Q 5.22296044921875 1.8521625000000002 5.1449604492187495 1.8521625000000002 L 5.0054604492187496 1.8521625000000002 L 5.0054604492187496 2.1154125 L 5.1449604492187495 2.1154125 Q 5.22296044921875 2.1154125 5.26421044921875 2.0809125 M 5.864602294921875 2.2811625 L 5.864602294921875 2.3291625000000002 L 5.493352294921874 2.3291625000000002 L 5.493352294921874 1.8041625000000003 L 5.853352294921875 1.8041625000000003 L 5.853352294921875 1.8521625000000002 L 5.548852294921875 1.8521625000000002 L 5.548852294921875 2.0389125000000003 L 5.820352294921874 2.0389125000000003 L 5.820352294921874 2.0861625000000004 L 5.548852294921875 2.0861625000000004 L 5.548852294921875 2.2811625 L 5.864602294921875 2.2811625 M 5.996232055664062 1.8041625000000003 L 6.209982055664062 1.8041625000000003 Q 6.293232055664062 1.8041625000000003 6.356982055664062 1.8375375000000003 Q 6.420732055664062 1.8709125000000002 6.455982055664062 1.9305375000000002 Q 6.491232055664062 1.9901625000000003 6.491232055664062 2.0666625 Q 6.491232055664062 2.1431625000000003 6.455982055664062 2.2027875000000003 Q 6.420732055664062 2.2624125000000004 6.356982055664062 2.2957875000000003 Q 6.293232055664062 2.3291625000000002 6.209982055664062 2.3291625000000002 L 5.996232055664062 2.3291625000000002 L 5.996232055664062 1.8041625000000003 M 6.206982055664062 2.2811625 Q 6.275982055664062 2.2811625 6.327732055664062 2.2537875 Q 6.379482055664062 2.2264125000000003 6.407982055664062 2.1780375000000003 Q 6.4364820556640625 2.1296625000000002 6.4364820556640625 2.0666625 Q 6.4364820556640625 2.0036625000000003 6.407982055664062 1.9552875000000003 Q 6.379482055664062 1.9069125000000002 6.327732055664062 1.8795375000000003 Q 6.275982055664062 1.8521625000000002 6.206982055664062 1.8521625000000002 L 6.051732055664062 1.8521625000000002 L 6.051732055664062 2.2811625 L 6.206982055664062 2.2811625 M 6.9880986328125 2.2811625 L 6.9880986328125 2.3291625000000002 L 6.616848632812499 2.3291625000000002 L 6.616848632812499 1.8041625000000003 L 6.9768486328125 1.8041625000000003 L 6.9768486328125 1.8521625000000002 L 6.6723486328125 1.8521625000000002 L 6.6723486328125 2.0389125000000003 L 6.943848632812499 2.0389125000000003 L 6.943848632812499 2.0861625000000004 L 6.6723486328125 2.0861625000000004 L 6.6723486328125 2.2811625 L 6.9880986328125 2.2811625 M 6.851598632812499 1.6684125 L 6.922848632812499 1.6684125 L 6.8013486328125 1.7614125000000003 L 6.7488486328125 1.7614125000000003 L 6.851598632812499 1.6684125 M 7.175228393554687 1.8521625000000002 L 7.175228393554687 2.0584125 L 7.446728393554687 2.0584125 L 7.446728393554687 2.1064125000000002 L 7.175228393554687 2.1064125000000002 L 7.175228393554687 2.3291625000000002 L 7.119728393554687 2.3291625000000002 L 7.119728393554687 1.8041625000000003 L 7.479728393554687 1.8041625000000003 L 7.479728393554687 1.8521625000000002 L 7.175228393554687 1.8521625000000002 M 7.595600097656249 1.8041625000000003 L 7.65110009765625 1.8041625000000003 L 7.65110009765625 2.3291625000000002 L 7.595600097656249 2.3291625000000002 L 7.595600097656249 1.8041625000000003 M 8.2619765625 1.8041625000000003 L 8.2619765625 2.3291625000000002 L 8.2162265625 2.3291625000000002 L 7.8787265625 1.9031625000000003 L 7.8787265625 2.3291625000000002 L 7.8232265624999995 2.3291625000000002 L 7.8232265624999995 1.8041625000000003 L 7.868976562499999 1.8041625000000003 L 8.2072265625 2.2301625 L 8.2072265625 1.8041625000000003 L 8.2619765625 1.8041625000000003 M 8.434092773437499 1.8041625000000003 L 8.489592773437499 1.8041625000000003 L 8.489592773437499 2.3291625000000002 L 8.434092773437499 2.3291625000000002 L 8.434092773437499 1.8041625000000003 M 9.032969238281249 2.2811625 L 9.032969238281249 2.3291625000000002 L 8.661719238281249 2.3291625000000002 L 8.661719238281249 1.8041625000000003 L 9.02171923828125 1.8041625000000003 L 9.02171923828125 1.8521625000000002 L 8.717219238281249 1.8521625000000002 L 8.717219238281249 2.0389125000000003 L 8.988719238281249 2.0389125000000003 L 8.988719238281249 2.0861625000000004 L 8.717219238281249 2.0861625000000004 L 8.717219238281249 2.2811625 L 9.032969238281249 2.2811625" fill="#aac527" fill-rule="nonzero"></path></g><g clip-path="url(#SvgjsClipPath1003)"><g clip-path="url(#SvgjsClipPath1001620b023c-ee84-4901-8669-e3befcfe995b)"><path d=" M 4.539205750601096 -4.891460614398899 L 4.539205750601096 -4.891460614398899 C 5.735336707313942 -4.891460614398899 6.704404033253575 -3.921955786280513 6.704404033253575 -2.7262623317464194 L 6.704404033253575 -2.4173857935462477 C 6.704404033253575 -1.2212548368334009 5.734899205135188 -0.25218751089376834 4.539205750601096 -0.25218751089376834 L 2.373569965769863 -0.25218751089376834 L 2.373569965769863 -2.7262623317464194 C 2.373569965769863 -3.921955786280513 3.3430747938882495 -4.891460614398899 4.539205750601096 -4.891460614398899 Z" fill="#343432" transform="matrix(1,0,0,1,0,0)" fill-rule="nonzero"></path></g><g clip-path="url(#SvgjsClipPath1001620b023c-ee84-4901-8669-e3befcfe995b)"><path d=" M 3.2713244365726286 -0.25218751089376834 C 3.250324331992447 -0.39568822552501004 3.2468243145624167 -0.5387514379774974 3.234136751378557 -0.6826896547874926 C 3.2275742186972503 -0.7566275229968822 3.2245117034459736 -0.8305653912062709 3.2315117383060343 -0.9045032594156615 C 3.2354492579148184 -0.9438784555035022 3.241136786238618 -0.9828161494125887 3.2472618167411706 -1.021753843321675 C 3.252074340707462 -1.0532540001919481 3.251636838528708 -1.093504200637296 3.2656369082488292 -1.1223793444350463 C 3.2743869518239053 -0.9780036254462972 3.280511982326458 -0.8340654086363024 3.2923245411528104 -0.6896896896475528 C 3.3036995978004087 -0.5470639793738199 3.3032620956216547 -0.38912569284370235 3.3487623222120484 -0.25218751089376834 C 3.323387195844329 -0.25218751089376834 3.297574567297856 -0.25218751089376834 3.2713244365726286 -0.25218751089376834 Z" fill="#aac527" transform="matrix(1,0,0,1,0,0)" fill-rule="nonzero"></path></g><g clip-path="url(#SvgjsClipPath1001620b023c-ee84-4901-8669-e3befcfe995b)"><path d=" M 2.6631964081048682 -0.25175000871501396 C 2.670196442964929 -0.4258758758590204 2.7178841804490914 -0.6004392451817804 2.806259620557356 -0.7513774968518367 C 2.804072109663587 -0.7518149990305902 2.7961970704460186 -0.5300013944024213 2.7966345726247726 -0.5090012898222396 C 2.798822083518542 -0.4166883301051909 2.8136971575961702 -0.3396879466445242 2.8438848079301815 -0.25262501307252183 C 2.8416972970364123 -0.25218751089376834 2.83907228396389 -0.25131250653626047 2.8368847730701208 -0.25131250653626047 C 2.7791344854746214 -0.25175000871501396 2.720946695700368 -0.25175000871501396 2.6631964081048682 -0.25175000871501396 Z" fill="#aac527" transform="matrix(1,0,0,1,0,0)" fill-rule="nonzero"></path></g><g clip-path="url(#SvgjsClipPath1001620b023c-ee84-4901-8669-e3befcfe995b)"><path d=" M 3.092386045462331 -0.2499999999999991 C 3.09807357378613 -0.31256281156179 3.073573451775918 -0.3865006797711805 3.0665734169158574 -0.4495009935117249 C 3.0586983776982892 -0.5186263377548226 3.053448351553244 -0.5881891841766747 3.049073329765706 -0.6573145284197723 C 3.044698307978168 -0.7268773748416244 3.042073294905646 -0.79687772344223 3.042948299263153 -0.8668780720428346 C 3.043385801441907 -0.9018782463431383 3.044698307978168 -0.9373159228221946 3.0464483166931835 -0.9723160971224978 C 3.047760823229445 -1.0007537387414938 3.042948299263153 -1.040566437008088 3.053448351553244 -1.0672540699120687 C 3.0687609278096266 -1.050191484940671 3.0626358973070733 -0.9981287256689715 3.0639484038433347 -0.9762536167312823 C 3.06569841255835 -0.9425659489672404 3.0683234256308727 -0.9093157833819534 3.0709484387033954 -0.8756281156179115 C 3.0766359670271948 -0.8051902648385516 3.08188599317224 -0.7347524140591926 3.0866985171385317 -0.6643145632798335 C 3.0963235650711147 -0.5216888530061006 3.1247612066901107 -0.3908757015587181 3.1566988657391373 -0.25175000871501485" fill="#aac527" transform="matrix(1,0,0,1,0,0)" fill-rule="nonzero"></path></g><g clip-path="url(#SvgjsClipPath1001620b023c-ee84-4901-8669-e3befcfe995b)"><path d=" M 4.138016252683875 -3.2355148678158248 C 4.124891187321262 -3.2197647893806884 4.021203170956616 -3.2902026401600484 4.000640568555188 -3.295452666305093 C 3.9398277657084115 -3.311640246918983 3.883389984649173 -3.2958901684838473 3.8256396970536737 -3.277077574797435 C 3.712764134935197 -3.24076489396087 3.562263385443895 -3.213639758878136 3.490513028128275 -3.1134517599435187 C 3.4122001381313476 -3.004076215255073 3.3820124877973363 -2.8719505572714303 3.348762322212049 -2.7433249167178175 C 3.332137239419405 -2.6776995899047495 3.3155121566267614 -2.6116367609129285 3.3023870912641478 -2.5451364297423535 C 3.2953870564040875 -2.5105737576208047 3.2901370302590416 -2.4760110854992554 3.2866370128290114 -2.441010911198953 C 3.2835744975777352 -2.4134482739374645 3.273511947466398 -2.371010562598347 3.289699528080288 -2.3465104405881356 C 3.329512226346883 -2.3570104928782256 3.3496373265695563 -2.3976981955023287 3.3723874398647533 -2.4278858458363395 C 3.3964500596962113 -2.459823504885365 3.4257627056727147 -2.4878236443256077 3.4533253429342032 -2.517136290302111 C 3.484825499804476 -2.5503864558873985 3.4935755433795515 -2.536823888346032 3.507138110920919 -2.498323696615699 C 3.522450687177301 -2.4558859852765815 3.5368882590761763 -2.413885776116219 3.5539508440475736 -2.3723230691346093 C 3.4922630368432896 -2.3495729558394123 3.422262688242684 -2.3403854100855828 3.357512365787125 -2.3285728512592305 C 3.2914495367953034 -2.316322790254125 3.225386707803482 -2.3058227379640335 3.1584488744541526 -2.299260205282727 C 3.0814484909934867 -2.2918226682439125 2.834697262176352 -2.266447541876193 2.8889475323418212 -2.4073232434349117 C 2.9300727371446773 -2.514073775050835 3.0368232687606005 -2.5818866127576716 3.0976360716073765 -2.6768245855472435 C 3.131761241550172 -2.7297623491764513 3.160636385347922 -2.784887623699428 3.203074096687039 -2.8325753611835904 C 3.244636803668648 -2.878950592131492 3.294074549867826 -2.9170132816830714 3.3408872829944807 -2.9568259799496657 C 3.3417622873519885 -2.961201001737203 3.342637291709496 -2.9673260322397557 3.3439497982457573 -2.975638573636078 C 3.3308247328831437 -2.996201176037506 3.255574358137493 -3.557078969199858 3.279636977968951 -3.585516610818854 C 3.291887038974057 -3.6003916848964823 3.413512644667609 -3.8270178134909427 3.7490768157717618 -3.98276858912729 C 4.191391518491837 -4.188394613141569 4.487142991329396 -4.0072687111375025 4.532643217919789 -3.953018440972033 C 4.577268440152675 -3.939893375609419 4.71770663953264 -3.645891911486876 4.722519163498932 -3.629704330872986 C 4.731269207074007 -3.6003916848964828 4.722081661320178 -3.601704191432744 4.691019006628659 -3.5951416587514373 C 4.632393714675652 -3.5828915977463316 4.57201841400763 -3.561453990987396 4.518205646020914 -3.5356413624409226 C 4.470955410715506 -3.512891249145726 4.42764269501888 -3.481828594454207 4.391767516361071 -3.4437659049026275 C 4.371204913959643 -3.422328298143692 4.353267324630738 -3.3982656783122343 4.333579726586818 -3.375515565017037 C 4.323079674296727 -3.363265504011931 4.28764199781767 -3.337452875465458 4.288517002175177 -3.3203902904940605 C 4.2745169324550565 -3.3203902904940605 4.237329247260985 -3.2998276880926323 4.227704199328402 -3.2910776445175567 C 4.203641579496943 -3.284077609657495 4.135828741790107 -3.2665775225073435 4.138016252683875 -3.2355148678158248 Z" fill="#e9e9e5" transform="matrix(1,0,0,1,0,0)" fill-rule="nonzero"></path></g><g clip-path="url(#SvgjsClipPath1001620b023c-ee84-4901-8669-e3befcfe995b)"><path d=" M 3.814702142584829 -2.371010562598347 C 3.8610773735327304 -2.356572990699472 3.9078901066593854 -2.3430104231581046 3.952952831071025 -2.3250728338291995 C 3.9927655293376194 -2.309322755394063 4.032578227604214 -2.281322615953821 4.073703432407069 -2.2708225636637303 C 4.1800164618442395 -2.2296973588608746 4.260954364913689 -2.1544469841152236 4.350642311558215 -2.0875091507658947 C 4.341892267983139 -2.036758898030455 4.310392111112867 -1.9899461649038015 4.306454591504083 -1.9396334143471163 C 4.060578367044456 -1.9238833359119791 3.9061400979443697 -1.647819461118341 3.807264605546015 -1.4513809828578914 C 3.7468893048779925 -1.3315053858793546 3.6957015499637995 -1.206817264934526 3.651513829909667 -1.0803791352746823 C 3.629638720971978 -1.0178163237128914 3.609513620749304 -0.9548160099723462 3.591138529241645 -0.891378194053047 C 3.574513446449001 -0.833627906457548 3.567075909410187 -0.7540025099243586 3.536450756897422 -0.7023772528314121 C 3.536450756897422 -0.8568155219314981 3.534700748182407 -1.0116912932103381 3.540388276506206 -1.1661295623104242 C 3.545638302651251 -1.3096302769416646 3.5434507917574827 -1.4544434981091672 3.58938852052663 -1.59225668441661 C 3.633576240580762 -1.723944840221499 3.7276392090128256 -1.8267578522286385 3.7731394356032193 -1.9566959993185118 C 3.7954520467196624 -2.021446321774072 3.809889618618537 -2.0892591594809087 3.8112021251547983 -2.157509499366499 C 3.812077129512306 -2.194259682381817 3.8072646055460146 -2.2279473501458584 3.7998270685072 -2.2638225288036686 C 3.789764518395863 -2.311947768466586 3.7941395401834015 -2.325947838186707 3.814702142584829 -2.371010562598347 Z" fill="#aac527" transform="matrix(1,0,0,1,0,0)" fill-rule="nonzero"></path></g><g clip-path="url(#SvgjsClipPath1001620b023c-ee84-4901-8669-e3befcfe995b)"><path d=" M 4.811769607964704 -2.7945126716320106 C 4.649456299647049 -2.7306373535339574 4.488455497865657 -2.664574524542136 4.323954678654234 -2.6055117304103748 C 4.246516793014814 -2.5775115909701327 4.168641405196641 -2.551261460244906 4.0903285151997135 -2.5254488316984327 C 4.0487658082181035 -2.511886264157065 4.007203101236494 -2.498323696615698 3.9656403942548852 -2.4851986312530845 C 3.9337027352058582 -2.4751360811417475 3.8864524999004497 -2.4501984569527813 3.853639836493916 -2.4536984743828114 C 3.8707024214653134 -2.510573757620804 3.926702700345798 -2.5643865256075187 3.9669529007911457 -2.6059492325891283 C 4.0150781404540625 -2.65582448096706 4.069765912798285 -2.6960746814124086 4.123141178606247 -2.7398248992877865 C 4.173016426984178 -2.780512601911888 4.212391623072019 -2.8225128110722517 4.229016705864662 -2.8863881291703044 C 4.244329282121045 -2.947200932017081 4.2185166535745715 -3.0053887217913333 4.232516723294693 -3.063576511565587 C 4.248704303908583 -3.0662015246381094 4.306892093682836 -3.086326624860784 4.313892128542897 -3.104264214189689 C 4.336642241838094 -3.106451725083458 4.356329839882014 -3.1182642839098103 4.379079953177211 -3.125264318769871 C 4.418455149265052 -3.1090767381559807 4.447330293062801 -3.077139079106954 4.487580493508149 -3.0596389919568034 C 4.534830728813558 -3.0390763895553756 4.583393470655228 -3.021576302405224 4.633706221211913 -3.0093262414001183 C 4.735206726682791 -2.984826119389906 4.830144699472362 -2.9957636738587503 4.930332698406978 -3.0220138045839775 C 4.9758329249973725 -3.0338263634103297 5.021333151587766 -3.047388930951697 5.06683337817816 -3.058326485420542 C 5.0983335350484325 -3.0662015246381094 5.161771350967731 -3.0692640398893865 5.185396468620436 -3.0963891749721206 C 5.206834075379371 -3.1213267991610865 5.17664642504536 -3.167702030108988 5.165708870576515 -3.1943896630129687 C 5.14427126381758 -3.246452422284669 5.119333639628614 -3.298952683735123 5.1022710546572165 -3.3527654517218384 C 5.1175836309135985 -3.3567029713306225 5.559460831454921 -3.266577522507343 5.552023294416107 -3.16332700832145 C 5.321897148391616 -3.0128262588301484 5.062895858569376 -2.9052007228567174 4.811769607964704 -2.7945126716320106 Z" fill="#e9e9e5" transform="matrix(1,0,0,1,0,0)" fill-rule="nonzero"></path></g><g clip-path="url(#SvgjsClipPath1001620b023c-ee84-4901-8669-e3befcfe995b)"><path d=" M 4.379517455355964 -3.1248268165911175 C 4.356767342060768 -3.1178267817310568 4.337079744016847 -3.105576720725951 4.314329630721651 -3.1038267120109353 C 4.3073295958615905 -3.0858891226820306 4.249141806087337 -3.065764022459356 4.2329542254734465 -3.0631390093868336 C 4.222016671004602 -3.085451620503277 4.162516374694087 -3.2398898896033623 4.1384537548626295 -3.235077365637071 C 4.135828741790107 -3.2665775225073435 4.203641579496943 -3.2836401074787416 4.228579203685909 -3.2902026401600484 C 4.238204251618492 -3.2993901859138774 4.275391936812564 -3.319515286136552 4.289392006532685 -3.319515286136552 C 4.301642067537791 -3.3094527360252144 4.310392111112867 -3.296327670662601 4.318704652509188 -3.2836401074787416 C 4.349329805021954 -3.235077365637071 4.371642416138396 -3.1830146063653713 4.379517455355964 -3.1248268165911175 Z" fill="#aac527" transform="matrix(1,0,0,1,0,0)" fill-rule="nonzero"></path></g><g clip-path="url(#SvgjsClipPath1001620b023c-ee84-4901-8669-e3befcfe995b)"><path d=" M 4.516893139484653 -2.06038401568316 C 4.466142886749214 -2.0927591769109397 4.515143130769638 -2.1338843817137954 4.546205785461156 -2.1662595429415763 C 4.570268405292614 -2.188134651879265 4.64726878875328 -2.2056347390294166 4.626268684173098 -2.1474469492551633 C 4.616643636240516 -2.121196818529936 4.544893278924896 -2.0608215178619136 4.516893139484653 -2.06038401568316 Z" fill="#aac527" transform="matrix(1,0,0,1,0,0)" fill-rule="nonzero"></path></g><g clip-path="url(#SvgjsClipPath1001620b023c-ee84-4901-8669-e3befcfe995b)"><path d=" M 4.911520104720566 -1.8385704110549907 C 4.920270148295642 -1.8998207160805212 4.923332663546919 -1.9798836147924632 4.873457415168987 -2.0201338152378114 C 4.8765199304202635 -2.08007161372708 4.864707371593911 -2.1347593860713032 4.810019599249689 -2.165822040762822 C 4.814394621037226 -2.201697219420632 4.82751968639984 -2.2450099351172565 4.817019634109749 -2.280885113775067 C 4.812644612322211 -2.2953226856739413 4.804769573104643 -2.3062602401427865 4.793394516457044 -2.315447785896615 C 4.784206970703215 -2.3228853229354303 4.76058185305051 -2.326822842544214 4.755331826905465 -2.3377603970130587 C 4.761894359586772 -2.3688230517045774 4.764519372659295 -2.432260867623876 4.743519268079113 -2.4589485005278573 C 4.7220816613201775 -2.4869486399680993 4.6652063780821855 -2.480386107286793 4.649893801825803 -2.448010946059013 C 4.631518710318144 -2.4099482565074335 4.68883149573489 -2.3994482042173426 4.67614393255103 -2.363573025559532 C 4.670456404227231 -2.3473854449456417 4.648143793110788 -2.335135383940537 4.638518745178205 -2.3202603098629075 C 4.628018692888114 -2.3045102314277717 4.620143653670546 -2.287447646456374 4.6188311471342836 -2.2681975505912075 C 4.615331129704254 -2.2800101094175598 4.610081103559208 -2.2961976900314496 4.613143618810485 -2.3088852532153097 C 4.617518640598023 -2.3272603447229683 4.6315187103181445 -2.3303228599742445 4.641581260429481 -2.345635436230627 C 4.612268614452978 -2.3661980386320556 4.524330676523467 -2.411260763043695 4.518205646020913 -2.4506359591315356 C 4.526080685238481 -2.4707610593542095 4.610081103559208 -2.479511102929285 4.631518710318144 -2.4886986486831146 C 4.651643810540818 -2.49744869225819 4.671331408584738 -2.5153862815870953 4.691894010986166 -2.5219488142684026 C 4.708956595957563 -2.5271988404134484 4.724706674392699 -2.5166987881233567 4.74089425500659 -2.5236988229834174 C 4.730394202716499 -2.549511451529891 4.716831635175132 -2.584949128008948 4.750519302939173 -2.5963241846565457 C 4.778519442379416 -2.605949232589129 4.80564457746215 -2.5967616868353 4.831894708187377 -2.618199293594235 C 4.891832506676646 -2.666762035435905 4.837144734332423 -2.7402624014665404 4.812207110143457 -2.7936376672745027 C 4.649893801825803 -2.7297623491764504 4.488893000044411 -2.6636995201846285 4.324392180832987 -2.604636726052868 C 4.246954295193568 -2.5766365866126257 4.169078907375394 -2.5503864558873985 4.090766017378467 -2.5245738273409253 C 4.049203310396858 -2.511011259799558 4.007640603415248 -2.49744869225819 3.966077896433638 -2.4843236268955766 C 3.9341402373846117 -2.47426107678424 3.886890002079203 -2.4493234525952743 3.8540773386726697 -2.4528234700253044 C 3.840952273310056 -2.425260832763816 3.828264710126196 -2.3976981955023278 3.8151396447635824 -2.3705730604195927 C 3.861514875711484 -2.356135488520718 3.908327608838139 -2.342572920979351 3.9533903332497786 -2.3246353316504456 C 3.993203031516373 -2.3088852532153097 4.033015729782967 -2.280885113775067 4.074140934585824 -2.2703850614849768 C 4.088141004305944 -2.306260240142787 4.095578541344759 -2.338635401370567 4.139766261398891 -2.315447785896616 C 4.182641474916761 -2.2926976726014194 4.219391657932079 -2.2585725026586236 4.262704373628704 -2.2353848871846735 C 4.305142084967821 -2.2126347738894765 4.350204809379461 -2.1977596998118485 4.396580040327362 -2.1859471409854963 C 4.421517664516328 -2.1798221104829434 4.446455288705294 -2.174572084337898 4.471830415073013 -2.171947071265375 C 4.4945805283682105 -2.1697595603716056 4.526080685238483 -2.1750095865166514 4.5466432876399105 -2.164947036405314 C 4.570705907471369 -2.1868221453430037 4.647706290932035 -2.204322232493155 4.6267061863518535 -2.146134442718902 C 4.61708113841927 -2.1198843119936748 4.545330781103649 -2.0595090113256527 4.517330641663407 -2.0590715091468987 C 4.505518082837055 -2.0507589677505766 4.487142991329396 -2.049008959035562 4.473580423788029 -2.0455089416055316 C 4.423267673231344 -2.0643215352919437 4.486267986971888 -2.117259298921152 4.486267986971888 -2.1338843817137962 C 4.427642695018881 -2.152259473221455 4.376892442283442 -2.1448219361826406 4.351517315915722 -2.0861966442296334 C 4.342767272340646 -2.0354463914941947 4.3112671154703746 -1.9886336583675401 4.3073295958615905 -1.938320907810855 C 4.060578367044456 -1.9238833359119791 3.9061400979443697 -1.647819461118341 3.807264605546015 -1.4513809828578914 C 3.7468893048779925 -1.3315053858793546 3.6957015499637995 -1.206817264934526 3.651513829909667 -1.0803791352746823 C 3.629638720971978 -1.0178163237128914 3.609513620749304 -0.9548160099723462 3.591138529241645 -0.891378194053047 C 3.574513446449001 -0.833627906457548 3.567075909410187 -0.7540025099243586 3.536450756897422 -0.7023772528314121 C 3.5228881893560544 -0.6861896722175223 3.5316382329311304 -0.6192518388681929 3.529450722037361 -0.5978142321092577 C 3.5255132024285776 -0.5593140403789247 3.519825674104778 -0.5212513508273462 3.5145756479597328 -0.48318866127576676 C 3.508888119635934 -0.4425009586516646 3.504075595669642 -0.40181325602756246 3.4966380586308277 -0.3611255534034603 C 3.489638023770767 -0.3252503747456501 3.475637954050646 -0.28806268955157766 3.4721379366206158 -0.25175000871501396 C 3.4747629496931385 -0.25175000871501396 3.4773879627656608 -0.25131250653626047 3.480012975838184 -0.2508750043575061 L 4.539205750601096 -0.2508750043575061 C 4.669581399869723 -0.2508750043575061 4.796894533887075 -0.26225006100510484 4.920707650474396 -0.28456267212154795 C 4.916332628686858 -0.3480004880408467 4.90145755460923 -0.41187580613889896 4.897957537179199 -0.4753136220581977 C 4.894020017570416 -0.5536265120551249 4.89577002628543 -0.6315018998732986 4.897082532821692 -0.7098147898702267 C 4.8997075458942145 -0.8721280981878801 4.9014575546092285 -1.0344414065055343 4.886582480531601 -1.196317212644435 C 4.880019947850293 -1.2685050721388094 4.871707406453972 -1.3402554294544298 4.861644856342634 -1.4120057867700506 C 4.852457310588806 -1.4771936114043642 4.822707162433549 -1.5633815406188596 4.841957258298715 -1.6259443521806514 C 4.86339486505765 -1.6959447007812574 4.90145755460923 -1.76682005373937 4.911520104720566 -1.8385704110549907 Z M 4.478830449933073 -1.8998207160805212 C 4.495018030546964 -1.920383318481949 4.583830972833982 -2.038508906745471 4.612706116631732 -1.9755085930049257 C 4.624956177636838 -1.948820960100944 4.586893488085259 -1.9251958424482396 4.569830903113861 -1.9116332749068725 C 4.537018239707327 -1.8866956507179076 4.516455637305899 -1.8687580613890016 4.478830449933073 -1.8998207160805212 Z M 4.591268509872796 -1.859570515635173 C 4.53964325277985 -1.8906331703266916 4.65295631707708 -1.958008505854774 4.683143967411091 -1.9475084535646832 C 4.751831809475435 -1.9243208380907326 4.609206099201701 -1.8661330483164793 4.591268509872796 -1.859570515635173 Z M 4.701081556739997 -2.4221983175125392 C 4.687956491377383 -2.430948361087615 4.675268928193523 -2.438823400305183 4.663018867188416 -2.447135941701505 C 4.669143897690969 -2.459386002706611 4.676581434729783 -2.4646360288516567 4.697144037131212 -2.471198561532963 C 4.71420662210261 -2.4545734787403193 4.7247066743927 -2.4392609024839365 4.701081556739997 -2.4221983175125392 Z" fill="#d4d6c9" transform="matrix(1,0,0,1,0,0)" fill-rule="nonzero"></path></g></g></g><defs><clipPath id="SvgjsClipPath1003"><path d=" M 2.373569965769863 -4.891460614398899 h 4.330834067483712 v 4.641460614398899 h -4.330834067483712 Z"></path></clipPath><clipPath id="SvgjsClipPath1001620b023c-ee84-4901-8669-e3befcfe995b"><path d=" M 2.373569965769863 -4.891460614398899 L 6.704404033253575 -4.891460614398899 L 6.704404033253575 -0.25 L 2.373569965769863 -0.25 Z"></path></clipPath></defs></svg>